<svg width="560" height="760" viewBox="0 0 560 760" fill="none" xmlns="http://www.w3.org/2000/svg">
  <defs>
    <linearGradient id="bg" x1="34" y1="40" x2="528" y2="724" gradientUnits="userSpaceOnUse">
      <stop stop-color="#13354F"/>
      <stop offset="1" stop-color="#0A2033"/>
    </linearGradient>
    <linearGradient id="panel" x1="50" y1="94" x2="510" y2="710" gradientUnits="userSpaceOnUse">
      <stop stop-color="#1E4C6F" stop-opacity="0.96"/>
      <stop offset="1" stop-color="#15415F" stop-opacity="0.96"/>
    </linearGradient>
  </defs>
  <rect width="560" height="760" rx="24" fill="url(#bg)"/>
  <rect x="26" y="26" width="508" height="708" rx="22" stroke="#5E89A8" stroke-opacity="0.35" stroke-width="2"/>
  <rect x="48" y="92" width="464" height="628" rx="18" fill="url(#panel)" stroke="#7FB7DD" stroke-opacity="0.3"/>

  <text x="74" y="154" fill="#D9EEFF" font-size="16" font-family="Arial, sans-serif" letter-spacing="1">SCIENCE ROBOTICS STYLE COVER</text>
  <text x="74" y="186" fill="#FFFFFF" font-size="26" font-weight="700" font-family="Arial, sans-serif">PHYSICS-INFORMED</text>
  <text x="74" y="218" fill="#FFFFFF" font-size="26" font-weight="700" font-family="Arial, sans-serif">NEURAL CONTROL</text>
  <text x="74" y="249" fill="#A9D7F2" font-size="15" font-family="Arial, sans-serif">Physically consistent residual learning for precision operation</text>

  <rect x="72" y="286" width="416" height="232" rx="12" fill="#0E2940" stroke="#7FB7DD" stroke-opacity="0.35"/>
  <text x="90" y="314" fill="#D7EEFF" font-size="14" font-family="Arial, sans-serif" font-weight="700">Model and Controller Architecture</text>

  <rect x="92" y="334" width="100" height="54" rx="9" fill="#23577F"/>
  <rect x="230" y="334" width="100" height="54" rx="9" fill="#2D6793"/>
  <rect x="368" y="334" width="100" height="54" rx="9" fill="#3574A3"/>
  <text x="108" y="356" fill="#F4FAFF" font-size="12" font-family="Arial, sans-serif">Physics</text>
  <text x="108" y="372" fill="#F4FAFF" font-size="12" font-family="Arial, sans-serif">Model</text>
  <text x="248" y="356" fill="#F4FAFF" font-size="12" font-family="Arial, sans-serif">Residual</text>
  <text x="248" y="372" fill="#F4FAFF" font-size="12" font-family="Arial, sans-serif">Neural Net</text>
  <text x="388" y="356" fill="#F4FAFF" font-size="12" font-family="Arial, sans-serif">Precision</text>
  <text x="388" y="372" fill="#F4FAFF" font-size="12" font-family="Arial, sans-serif">Controller</text>
  <path d="M192 361H222" stroke="#A8D6F4" stroke-width="3"/>
  <path d="M330 361H360" stroke="#A8D6F4" stroke-width="3"/>
  <path d="M220 361L214 356V366L220 361Z" fill="#A8D6F4"/>
  <path d="M358 361L352 356V366L358 361Z" fill="#A8D6F4"/>

  <rect x="92" y="404" width="376" height="94" rx="8" fill="#123A57" stroke="#6EA6CB" stroke-opacity="0.4"/>
  <path d="M108 474C136 440 154 432 186 420C218 408 246 408 282 416C318 424 350 436 378 430C404 424 426 406 450 384" stroke="#8FD8FF" stroke-width="3.5" fill="none"/>
  <path d="M108 486C140 468 170 460 202 450C232 440 264 438 296 444C330 450 356 460 386 456C414 452 434 438 450 422" stroke="#FFD06D" stroke-width="3.5" fill="none"/>
  <text x="108" y="424" fill="#C7E8FF" font-size="12" font-family="Arial, sans-serif">reference</text>
  <text x="108" y="441" fill="#FFE2A3" font-size="12" font-family="Arial, sans-serif">model output</text>
  <text x="340" y="490" fill="#BBDFF8" font-size="12" font-family="Arial, sans-serif">error minimization</text>

  <rect x="72" y="534" width="230" height="154" rx="12" fill="#0E2940" stroke="#7FB7DD" stroke-opacity="0.35"/>
  <text x="90" y="562" fill="#D7EEFF" font-size="14" font-family="Arial, sans-serif" font-weight="700">Tracking Performance</text>
  <rect x="92" y="576" width="190" height="96" rx="8" fill="#123954"/>
  <g opacity="0.35" stroke="#CBE7FA" stroke-width="1">
    <path d="M92 602H282"/>
    <path d="M92 628H282"/>
    <path d="M92 654H282"/>
    <path d="M130 576V672"/>
    <path d="M168 576V672"/>
    <path d="M206 576V672"/>
    <path d="M244 576V672"/>
  </g>
  <path d="M96 650C128 622 150 620 178 604C206 588 230 586 278 586" stroke="#8ED7FF" stroke-width="2.8" fill="none"/>
  <path d="M96 650C126 636 150 632 176 620C204 608 230 602 278 598" stroke="#FFD06D" stroke-width="2.8" fill="none"/>

  <rect x="318" y="534" width="170" height="154" rx="12" fill="#0E2940" stroke="#7FB7DD" stroke-opacity="0.35"/>
  <text x="336" y="562" fill="#D7EEFF" font-size="14" font-family="Arial, sans-serif" font-weight="700">Excavator Plant</text>
  <rect x="336" y="582" width="136" height="88" rx="8" fill="#224C6E"/>
  <rect x="348" y="640" width="90" height="22" rx="5" fill="#2E5C82"/>
  <circle cx="364" cy="651" r="5" fill="#DBEEFF"/>
  <circle cx="380" cy="651" r="5" fill="#DBEEFF"/>
  <rect x="392" y="647" width="38" height="8" rx="4" fill="#DBEEFF"/>
  <rect x="360" y="612" width="18" height="28" rx="4" fill="#AECFE8"/>
  <path d="M376 614L406 598L418 604L388 621L376 614Z" fill="#89BEE2"/>
  <path d="M416 603L438 572L448 578L426 610L416 603Z" fill="#B8DEF4"/>
  <path d="M446 578L458 564L468 572L456 586L446 578Z" fill="#FFCC63"/>
  <circle cx="406" cy="598" r="4.5" fill="#EDF7FF"/>
  <circle cx="438" cy="572" r="4.5" fill="#EDF7FF"/>

  <text x="74" y="705" fill="#8CC3E5" font-size="12" font-family="Arial, sans-serif">Applied Soft Computing · 2024</text>
</svg>
