<svg xmlns="http://www.w3.org/2000/svg" viewBox="0 0 1600 900" role="img" aria-label="Constraint-aware motion planning for vehicles">
  <defs>
    <linearGradient id="bg" x1="0" y1="0" x2="1" y2="1">
      <stop offset="0%" stop-color="#fbfbfc"/>
      <stop offset="100%" stop-color="#f3f7fb"/>
    </linearGradient>
    <linearGradient id="panel" x1="0" y1="0" x2="0" y2="1">
      <stop offset="0%" stop-color="#ffffff"/>
      <stop offset="100%" stop-color="#f7fafc"/>
    </linearGradient>
    <linearGradient id="terrainA" x1="0" y1="0" x2="1" y2="1">
      <stop offset="0%" stop-color="#d7efff"/>
      <stop offset="40%" stop-color="#9ed2ff"/>
      <stop offset="70%" stop-color="#ffd88c"/>
      <stop offset="100%" stop-color="#ef6f63"/>
    </linearGradient>
    <linearGradient id="terrainB" x1="0" y1="0" x2="1" y2="1">
      <stop offset="0%" stop-color="#eef3f8"/>
      <stop offset="100%" stop-color="#cfd8e3"/>
    </linearGradient>
    <marker id="arrow" viewBox="0 0 10 10" refX="8.5" refY="5" markerWidth="7" markerHeight="7" orient="auto">
      <path d="M 0 0 L 10 5 L 0 10 z" fill="#203040"/>
    </marker>
    <marker id="arrowGreen" viewBox="0 0 10 10" refX="8.5" refY="5" markerWidth="7" markerHeight="7" orient="auto">
      <path d="M 0 0 L 10 5 L 0 10 z" fill="#148a4b"/>
    </marker>
    <marker id="arrowMagenta" viewBox="0 0 10 10" refX="8.5" refY="5" markerWidth="7" markerHeight="7" orient="auto">
      <path d="M 0 0 L 10 5 L 0 10 z" fill="#d116a4"/>
    </marker>
    <filter id="shadow" x="-20%" y="-20%" width="140%" height="140%">
      <feDropShadow dx="0" dy="8" stdDeviation="16" flood-color="#72849a" flood-opacity="0.14"/>
    </filter>
  </defs>

  <rect width="1600" height="900" fill="url(#bg)"/>
  <text x="72" y="78" fill="#17314f" font-family="Arial, Microsoft YaHei, sans-serif" font-size="34" font-weight="700">Constraint-aware motion planning for vehicles</text>
  <text x="72" y="112" fill="#60798e" font-family="Arial, Microsoft YaHei, sans-serif" font-size="18">Terrain traversability assessment, constraint checking and optimized path generation</text>

  <g filter="url(#shadow)">
    <rect x="70" y="160" width="1460" height="660" rx="28" fill="url(#panel)" stroke="#d8e2eb"/>
  </g>

  <g font-family="Arial, Microsoft YaHei, sans-serif">
    <rect x="98" y="192" width="450" height="560" rx="20" fill="#ffffff" stroke="#dbe3eb"/>
    <rect x="575" y="192" width="450" height="560" rx="20" fill="#ffffff" stroke="#dbe3eb"/>
    <rect x="1052" y="192" width="450" height="560" rx="20" fill="#ffffff" stroke="#dbe3eb"/>

    <text x="122" y="228" fill="#7a4aa0" font-size="22" font-weight="700">A  Terrain traversability map</text>
    <text x="599" y="228" fill="#7a4aa0" font-size="22" font-weight="700">B  Constraint-aware search</text>
    <text x="1076" y="228" fill="#7a4aa0" font-size="22" font-weight="700">C  Optimized trajectory</text>

    <!-- Panel A -->
    <g transform="translate(118,252)">
      <rect x="0" y="0" width="410" height="470" rx="16" fill="#f8fbfe" stroke="#e3e9ef"/>
      <g opacity="0.95" stroke="#e7edf3" stroke-width="1">
        <path d="M18 60H392M18 108H392M18 156H392M18 204H392M18 252H392M18 300H392M18 348H392M18 396H392M18 444H392"/>
        <path d="M62 18V452M110 18V452M158 18V452M206 18V452M254 18V452M302 18V452M350 18V452"/>
      </g>
      <g>
        <rect x="18" y="18" width="48" height="48" fill="#d9f0ff"/>
        <rect x="66" y="18" width="48" height="48" fill="#bfe1ff"/>
        <rect x="114" y="18" width="48" height="48" fill="#a6d2ff"/>
        <rect x="162" y="18" width="48" height="48" fill="#8bc2ff"/>
        <rect x="210" y="18" width="48" height="48" fill="#79b5ff"/>
        <rect x="258" y="18" width="48" height="48" fill="#66a7ff"/>
        <rect x="306" y="18" width="48" height="48" fill="#57a0ff"/>
        <rect x="354" y="18" width="48" height="48" fill="#4a96ff"/>
        <rect x="18" y="66" width="48" height="48" fill="#d5eef8"/>
        <rect x="66" y="66" width="48" height="48" fill="#d8ebd5"/>
        <rect x="114" y="66" width="48" height="48" fill="#dce9c8"/>
        <rect x="162" y="66" width="48" height="48" fill="#f5e7ad"/>
        <rect x="210" y="66" width="48" height="48" fill="#f4d28f"/>
        <rect x="258" y="66" width="48" height="48" fill="#f1bb7d"/>
        <rect x="306" y="66" width="48" height="48" fill="#eea56c"/>
        <rect x="354" y="66" width="48" height="48" fill="#e98f64"/>
        <rect x="18" y="114" width="48" height="48" fill="#e7f4ff"/>
        <rect x="66" y="114" width="48" height="48" fill="#eaf6e8"/>
        <rect x="114" y="114" width="48" height="48" fill="#fff4bf"/>
        <rect x="162" y="114" width="48" height="48" fill="#ffdd96"/>
        <rect x="210" y="114" width="48" height="48" fill="#ffc46f"/>
        <rect x="258" y="114" width="48" height="48" fill="#ffab5b"/>
        <rect x="306" y="114" width="48" height="48" fill="#ff8f57"/>
        <rect x="354" y="114" width="48" height="48" fill="#ef6f63"/>
        <rect x="18" y="162" width="48" height="48" fill="#eef6ff"/>
        <rect x="66" y="162" width="48" height="48" fill="#f0faeb"/>
        <rect x="114" y="162" width="48" height="48" fill="#f4f7d9"/>
        <rect x="162" y="162" width="48" height="48" fill="#f9e9b5"/>
        <rect x="210" y="162" width="48" height="48" fill="#f4cf8c"/>
        <rect x="258" y="162" width="48" height="48" fill="#ecb373"/>
        <rect x="306" y="162" width="48" height="48" fill="#e89467"/>
        <rect x="354" y="162" width="48" height="48" fill="#e67162"/>
      </g>

      <g opacity="0.55" fill="none" stroke="#7f8f9d" stroke-width="3">
        <path d="M30 414 C88 372, 130 380, 172 340 S258 252, 322 286 S370 370, 392 346"/>
        <path d="M26 360 C88 338, 118 320, 166 282 S254 208, 320 240 S370 314, 392 292"/>
        <path d="M36 302 C90 270, 138 248, 188 222 S278 176, 342 196 S384 238, 396 220"/>
      </g>

      <g>
        <circle cx="344" cy="346" r="18" fill="#3b4650"/>
        <circle cx="110" cy="124" r="10" fill="#53626f"/>
        <circle cx="238" cy="86" r="10" fill="#53626f"/>
        <circle cx="316" cy="186" r="10" fill="#53626f"/>
        <circle cx="176" cy="278" r="10" fill="#53626f"/>
      </g>

      <g transform="translate(50,344)">
        <rect x="0" y="0" width="84" height="36" rx="10" fill="#1f78d1"/>
        <rect x="14" y="-18" width="52" height="20" rx="6" fill="#6ec0ff"/>
        <circle cx="16" cy="38" r="8" fill="#404954"/>
        <circle cx="68" cy="38" r="8" fill="#404954"/>
        <path d="M84 18 L120 18" stroke="#1f78d1" stroke-width="6" marker-end="url(#arrow)"/>
      </g>
      <circle cx="62" cy="378" r="8" fill="#1f78d1"/>
      <text x="62" y="412" fill="#17314f" font-size="15" font-weight="700" text-anchor="middle">Start</text>
      <circle cx="380" cy="92" r="9" fill="#16a34a"/>
      <text x="380" y="70" fill="#17314f" font-size="15" font-weight="700" text-anchor="middle">Goal</text>

      <g transform="translate(286,32)">
        <rect x="0" y="0" width="102" height="126" rx="14" fill="#ffffff" stroke="#dce3ea"/>
        <text x="51" y="24" fill="#17314f" font-size="14" font-weight="700" text-anchor="middle">Legend</text>
        <rect x="14" y="36" width="18" height="18" fill="#5aa9ff"/><text x="40" y="51" fill="#4b5560" font-size="13">low cost</text>
        <rect x="14" y="58" width="18" height="18" fill="#f7d37b"/><text x="40" y="73" fill="#4b5560" font-size="13">mid cost</text>
        <rect x="14" y="80" width="18" height="18" fill="#ef6f63"/><text x="40" y="95" fill="#4b5560" font-size="13">high cost</text>
        <rect x="14" y="102" width="18" height="10" fill="#3b4650"/><text x="40" y="111" fill="#4b5560" font-size="13">obstacle</text>
      </g>

      <text x="20" y="456" fill="#60788d" font-size="14">Traversability cost derived from terrain observation</text>
    </g>

    <!-- Panel B -->
    <g transform="translate(595,252)">
      <rect x="0" y="0" width="410" height="470" rx="16" fill="#f8fbfe" stroke="#e3e9ef"/>
      <g opacity="0.85" stroke="#e7edf3" stroke-width="1">
        <path d="M18 90H392M18 180H392M18 270H392M18 360H392"/>
      </g>

      <rect x="18" y="28" width="374" height="64" rx="14" fill="#ffffff" stroke="#dbe3eb"/>
      <text x="36" y="55" fill="#17314f" font-size="17" font-weight="700">Constraint evaluation</text>
      <text x="36" y="78" fill="#60788d" font-size="13">filter candidates before global optimization</text>

      <rect x="18" y="112" width="112" height="330" rx="14" fill="#ffffff" stroke="#dbe3eb"/>
      <rect x="144" y="112" width="112" height="330" rx="14" fill="#ffffff" stroke="#dbe3eb"/>
      <rect x="270" y="112" width="122" height="330" rx="14" fill="#ffffff" stroke="#dbe3eb"/>

      <text x="74" y="138" fill="#17314f" font-size="15" font-weight="700" text-anchor="middle">Slope</text>
      <text x="200" y="138" fill="#17314f" font-size="15" font-weight="700" text-anchor="middle">Obstacle</text>
      <text x="331" y="138" fill="#17314f" font-size="15" font-weight="700" text-anchor="middle">Turning radius</text>

      <g transform="translate(36,164)">
        <path d="M0 88 L82 20" stroke="#aab5c0" stroke-width="10" stroke-linecap="round"/>
        <path d="M0 104 L82 36" stroke="#ef6f63" stroke-width="4" stroke-dasharray="7 7" marker-end="url(#arrow)"/>
        <rect x="0" y="110" width="82" height="12" fill="#d9dee5"/>
        <text x="41" y="146" fill="#60788d" font-size="13" text-anchor="middle">too steep</text>
      </g>

      <g transform="translate(162,164)">
        <path d="M8 92 C26 74, 34 54, 56 42 S88 22, 94 8" fill="none" stroke="#8b96a3" stroke-width="3"/>
        <circle cx="58" cy="42" r="12" fill="#3b4650"/>
        <circle cx="84" cy="18" r="12" fill="#3b4650"/>
        <rect x="34" y="62" width="50" height="20" rx="6" fill="#1f78d1"/>
        <circle cx="38" cy="94" r="7" fill="#3b4650"/>
        <circle cx="72" cy="94" r="7" fill="#3b4650"/>
        <circle cx="52" cy="60" r="20" fill="none" stroke="#ef6f63" stroke-width="4"/>
        <text x="60" y="146" fill="#60788d" font-size="13" text-anchor="middle">collision risk</text>
      </g>

      <g transform="translate(284,160)">
        <path d="M10 86 C32 76, 52 60, 74 42 S106 16, 108 8" fill="none" stroke="#16a34a" stroke-width="4" marker-end="url(#arrowGreen)"/>
        <path d="M10 86 C32 68, 50 56, 66 48 S96 24, 108 8" fill="none" stroke="#8bbf98" stroke-width="2" stroke-dasharray="5 6"/>
        <circle cx="40" cy="64" r="7" fill="#3b4650"/>
        <circle cx="66" cy="48" r="7" fill="#3b4650"/>
        <circle cx="92" cy="24" r="7" fill="#3b4650"/>
        <text x="56" y="146" fill="#60788d" font-size="13" text-anchor="middle">feasible</text>
      </g>

      <g transform="translate(32,348)">
        <rect x="0" y="0" width="350" height="76" rx="12" fill="#f4f9fd" stroke="#dbe3eb"/>
        <text x="175" y="28" fill="#17314f" font-size="15" font-weight="700" text-anchor="middle">Feasible candidates retained</text>
        <text x="175" y="51" fill="#60788d" font-size="12.5" text-anchor="middle">invalid samples removed by constraints</text>
      </g>
    </g>

    <!-- Panel C -->
    <g transform="translate(1072,252)">
      <rect x="0" y="0" width="410" height="470" rx="16" fill="#f8fbfe" stroke="#e3e9ef"/>
      <rect x="18" y="18" width="374" height="352" rx="14" fill="#ffffff" stroke="#dbe3eb"/>
      <g opacity="0.9" stroke="#edf1f5" stroke-width="1">
        <path d="M18 70H392M18 122H392M18 174H392M18 226H392M18 278H392M18 330H392"/>
        <path d="M74 18V370M130 18V370M186 18V370M242 18V370M298 18V370M354 18V370"/>
      </g>

      <g fill="#d7e5ef">
        <path d="M22 84 C74 54, 122 60, 174 40 S282 20, 338 46 S388 84, 388 84 L388 120 L22 120 Z"/>
        <path d="M22 196 C74 168, 122 172, 170 150 S276 128, 334 148 S388 196, 388 196 L388 244 L22 244 Z" opacity="0.82"/>
        <path d="M22 292 C74 270, 124 270, 176 246 S286 214, 338 236 S388 286, 388 286 L388 332 L22 332 Z" opacity="0.74"/>
      </g>

      <g opacity="0.55" fill="#3b4650">
        <circle cx="96" cy="84" r="9"/>
        <circle cx="244" cy="112" r="11"/>
        <circle cx="330" cy="172" r="9"/>
        <circle cx="164" cy="244" r="11"/>
        <circle cx="286" cy="300" r="10"/>
      </g>

      <circle cx="58" cy="330" r="10" fill="#1f78d1"/>
      <text x="58" y="354" fill="#17314f" font-size="14" font-weight="700" text-anchor="middle">Start</text>
      <circle cx="366" cy="54" r="10" fill="#16a34a"/>
      <text x="366" y="42" fill="#17314f" font-size="14" font-weight="700" text-anchor="middle">Goal</text>

      <path d="M58 330 C104 296, 128 288, 164 254 S228 180, 262 156 S318 86, 366 54" fill="none" stroke="#d116a4" stroke-width="6" marker-end="url(#arrowMagenta)"/>
      <path d="M60 328 C106 288, 132 280, 170 246 S232 176, 266 150 S322 84, 366 54" fill="none" stroke="#f0a3d6" stroke-width="3" stroke-dasharray="8 8"/>

      <g fill="#d116a4">
        <circle cx="58" cy="330" r="5"/>
        <circle cx="114" cy="288" r="5"/>
        <circle cx="168" cy="244" r="5"/>
        <circle cx="220" cy="190" r="5"/>
        <circle cx="272" cy="142" r="5"/>
        <circle cx="326" cy="88" r="5"/>
        <circle cx="366" cy="54" r="5"/>
      </g>

      <g transform="translate(22,384)">
        <rect x="0" y="0" width="374" height="40" rx="12" fill="#ffffff" stroke="#dbe3eb"/>
        <text x="187" y="26" fill="#17314f" font-size="15" font-weight="700" text-anchor="middle">Collision-free optimized path</text>
      </g>
      <g transform="translate(22,434)">
        <rect x="0" y="0" width="374" height="18" rx="9" fill="#f4f9fd" stroke="#dbe3eb"/>
        <path d="M14 9 H74" stroke="#1f78d1" stroke-width="4" stroke-linecap="round"/>
        <text x="96" y="13" fill="#60788d" font-size="13">search seed</text>
        <path d="M228 9 H288" stroke="#d116a4" stroke-width="4" stroke-linecap="round"/>
        <text x="310" y="13" fill="#60788d" font-size="13">optimized path</text>
      </g>
    </g>
  </g>

  <text x="800" y="858" fill="#17314f" font-size="26" font-family="Arial, Microsoft YaHei, sans-serif" font-weight="700" text-anchor="middle">From terrain assessment to constraint-aware motion planning</text>
</svg>
