<svg xmlns="http://www.w3.org/2000/svg" viewBox="0 0 1200 800" role="img" aria-label="复杂场景车辆自主导航示意图">
  <defs>
    <linearGradient id="bg" x1="0" y1="0" x2="1" y2="1">
      <stop offset="0%" stop-color="#102337"/>
      <stop offset="100%" stop-color="#2d5e8b"/>
    </linearGradient>
    <linearGradient id="card" x1="0" y1="0" x2="0" y2="1">
      <stop offset="0%" stop-color="#ffffff" stop-opacity="0.14"/>
      <stop offset="100%" stop-color="#ffffff" stop-opacity="0.05"/>
    </linearGradient>
    <linearGradient id="route" x1="0" y1="0" x2="1" y2="0">
      <stop offset="0%" stop-color="#8ad7ff"/>
      <stop offset="100%" stop-color="#e8f7ff"/>
    </linearGradient>
  </defs>
  <rect width="1200" height="800" rx="36" fill="url(#bg)"/>
  <g opacity="0.15" stroke="#d9ecff" stroke-width="1">
    <path d="M60 120H1140M60 220H1140M60 320H1140M60 420H1140M60 520H1140M60 620H1140M60 720H1140"/>
    <path d="M150 70V730M290 70V730M430 70V730M570 70V730M710 70V730M850 70V730M990 70V730"/>
  </g>
  <circle cx="945" cy="160" r="180" fill="#8ad7ff" fill-opacity="0.1"/>

  <rect x="70" y="95" width="250" height="615" rx="28" fill="url(#card)" stroke="#e8f7ff" stroke-opacity="0.18"/>
  <rect x="350" y="95" width="250" height="615" rx="28" fill="url(#card)" stroke="#e8f7ff" stroke-opacity="0.18"/>
  <rect x="630" y="95" width="500" height="615" rx="28" fill="url(#card)" stroke="#e8f7ff" stroke-opacity="0.18"/>

  <text x="195" y="145" fill="#ffffff" font-size="26" font-weight="700" text-anchor="middle" font-family="Microsoft YaHei, PingFang SC, sans-serif">地形评估</text>
  <text x="195" y="178" fill="#d9ecff" font-size="15" text-anchor="middle" font-family="Microsoft YaHei, PingFang SC, sans-serif">通行性与风险</text>
  <text x="475" y="145" fill="#ffffff" font-size="26" font-weight="700" text-anchor="middle" font-family="Microsoft YaHei, PingFang SC, sans-serif">代价地图</text>
  <text x="475" y="178" fill="#d9ecff" font-size="15" text-anchor="middle" font-family="Microsoft YaHei, PingFang SC, sans-serif">障碍与可通行区域</text>
  <text x="880" y="145" fill="#ffffff" font-size="26" font-weight="700" text-anchor="middle" font-family="Microsoft YaHei, PingFang SC, sans-serif">路径规划</text>
  <text x="880" y="178" fill="#d9ecff" font-size="15" text-anchor="middle" font-family="Microsoft YaHei, PingFang SC, sans-serif">约束感知轨迹输出</text>

  <g>
    <path d="M105 610 C150 560, 165 520, 205 515 S270 530, 290 480" stroke="#8ad7ff" stroke-width="6" fill="none"/>
    <path d="M95 640 C135 575, 155 540, 195 490 S255 430, 280 390" stroke="#ffffff" stroke-opacity="0.22" stroke-width="20" fill="none"/>
    <path d="M120 650 C160 620, 205 580, 240 610" stroke="#8ad7ff" stroke-width="4" stroke-dasharray="7 10" fill="none"/>
    <path d="M130 585 L160 540 L200 550 L220 500 L265 490" stroke="#e8f7ff" stroke-width="4" fill="none"/>
    <circle cx="120" cy="650" r="10" fill="#8ad7ff"/>
    <circle cx="170" cy="540" r="10" fill="#8ad7ff"/>
    <circle cx="220" cy="500" r="10" fill="#8ad7ff"/>
    <circle cx="265" cy="490" r="10" fill="#8ad7ff"/>
    <g fill="#e8f7ff" fill-opacity="0.1" stroke="#e8f7ff" stroke-opacity="0.45" stroke-width="2">
      <path d="M130 450 L175 420 L205 450 L160 480 Z"/>
      <path d="M210 370 L245 345 L275 370 L240 395 Z"/>
      <path d="M130 330 L165 305 L190 330 L155 355 Z"/>
    </g>
    <path d="M90 690 C150 650, 225 650, 300 610 S430 560, 540 590 S650 690, 760 630 S935 530, 1120 570" stroke="#84d2ff" stroke-width="5" fill="none" opacity="0.8"/>
    <path d="M90 690 C150 650, 225 650, 300 610 S430 560, 540 590 S650 690, 760 630 S935 530, 1120 570" stroke="#ffffff" stroke-opacity="0.16" stroke-width="18" fill="none"/>
  </g>

  <g>
    <rect x="388" y="285" width="170" height="180" rx="18" fill="#0f2538" stroke="#8ad7ff" stroke-width="2.5"/>
    <g opacity="0.9" stroke="#d9ecff" stroke-width="1">
      <path d="M405 310H541M405 340H541M405 370H541M405 400H541M405 430H541M405 460H541"/>
      <path d="M430 295V475M460 295V475M490 295V475M520 295V475"/>
    </g>
    <circle cx="435" cy="345" r="16" fill="#1b3550" stroke="#8ad7ff" stroke-width="4"/>
    <circle cx="505" cy="400" r="16" fill="#1b3550" stroke="#8ad7ff" stroke-width="4"/>
    <circle cx="470" cy="430" r="16" fill="#1b3550" stroke="#8ad7ff" stroke-width="4"/>
    <path d="M415 455 C445 430, 470 412, 515 372" stroke="#8ad7ff" stroke-width="5"/>
    <path d="M415 455 C458 452, 480 440, 528 430" stroke="#e8f7ff" stroke-width="4" stroke-dasharray="8 8"/>
    <text x="473" y="500" fill="#d9ecff" font-size="14" text-anchor="middle" font-family="Microsoft YaHei, PingFang SC, sans-serif">地形代价栅格</text>
  </g>

  <g>
    <rect x="700" y="280" width="320" height="200" rx="20" fill="#0f2538" stroke="#8ad7ff" stroke-width="2.5"/>
    <rect x="718" y="298" width="284" height="164" rx="16" fill="#173654" stroke="#d9ecff" stroke-opacity="0.18"/>
    <path d="M730 426 C770 390, 810 400, 845 360 S915 310, 955 335 S995 390, 1005 325" stroke="url(#route)" stroke-width="7" fill="none"/>
    <path d="M730 426 C770 390, 810 400, 845 360 S915 310, 955 335 S995 390, 1005 325" stroke="#ffffff" stroke-opacity="0.18" stroke-width="18" fill="none"/>
    <circle cx="730" cy="426" r="8" fill="#8ad7ff"/>
    <circle cx="845" cy="360" r="8" fill="#8ad7ff"/>
    <circle cx="955" cy="335" r="8" fill="#8ad7ff"/>
    <circle cx="1005" cy="325" r="8" fill="#8ad7ff"/>
    <path d="M905 540 L915 480 L950 470 L980 430" stroke="#e8f7ff" stroke-width="5" fill="none" opacity="0.8"/>
    <rect x="860" y="390" width="78" height="42" rx="10" fill="#1b3550" stroke="#8ad7ff" stroke-width="3"/>
    <circle cx="880" cy="432" r="14" fill="#1b3550" stroke="#8ad7ff" stroke-width="4"/>
    <circle cx="918" cy="432" r="14" fill="#1b3550" stroke="#8ad7ff" stroke-width="4"/>
    <text x="860" y="555" fill="#d9ecff" font-size="14" font-family="Microsoft YaHei, PingFang SC, sans-serif">约束感知车辆</text>
  </g>

  <text x="600" y="734" fill="#ffffff" font-size="26" font-weight="700" text-anchor="middle" font-family="Microsoft YaHei, PingFang SC, sans-serif">可穿越性评估 - 代价地图 - 轨迹规划</text>
</svg>
